<svg width="32" height="33" viewBox="0 0 32 33" fill="none" xmlns="http://www.w3.org/2000/svg">
<path d="M4.55924 32.3334C4.00871 32.1199 3.82229 31.7084 3.82423 31.1329C3.83686 27.9477 3.83297 24.7625 3.8252 21.5773C3.8252 21.321 3.87764 21.1832 4.13299 21.058C4.44272 20.9057 4.72624 20.6718 4.97286 20.4253C8.5498 16.8616 12.119 13.2901 15.6891 9.71866C15.7765 9.63034 15.8454 9.52359 15.9037 9.44983C19.3496 12.8951 22.7556 16.3006 26.1724 19.7158C25.3849 20.337 25.1655 21.3453 24.68 22.1955C24.5771 22.376 24.4305 22.5497 24.2654 22.6749C23.8926 22.9573 23.4945 23.2058 23.109 23.4717C21.473 24.6014 21.4643 26.8685 23.0916 28.0107C23.1168 28.0282 23.1421 28.0486 23.1692 28.0622C24.2149 28.5843 24.881 29.417 25.2772 30.5117C25.5772 31.3415 26.1578 31.9364 27.0161 32.2286C27.0588 32.2431 27.088 32.2965 27.1229 32.3324H19.6224C19.6175 32.2286 19.6078 32.1257 19.6078 32.0218C19.6078 29.6053 19.6156 27.1897 19.6049 24.7731C19.5942 22.3372 17.5087 20.5941 15.1337 21.0202C13.3744 21.3356 12.1054 22.8923 12.0986 24.7741C12.0889 27.1907 12.0957 29.6063 12.0976 32.0228C12.0976 32.1257 12.1141 32.2295 12.1229 32.3324H4.55924V32.3334Z" fill="url(#paint0_linear_5_61)"/>
<path d="M31.999 16.3986C31.8864 16.5452 31.7883 16.7053 31.6602 16.8354C30.8844 17.6205 30.1018 18.3988 29.3202 19.1791C28.9435 19.5547 28.7541 19.5557 28.3803 19.182C24.3364 15.1399 20.2934 11.0977 16.2514 7.05364C16.164 6.96629 16.1018 6.85177 15.9775 6.68097C15.8455 6.85663 15.7814 6.96726 15.694 7.05461C11.6821 11.0696 7.66727 15.0817 3.6534 19.0947C3.20483 19.5431 3.04948 19.5421 2.60091 19.0947C1.82027 18.3144 1.03866 17.5341 0.258999 16.7529C-0.0856849 16.4074 -0.0866559 16.2036 0.258028 15.859C1.31053 14.8051 2.364 13.7521 3.41747 12.7C3.48252 12.635 3.55243 12.5748 3.62039 12.5118C3.82914 12.7039 4.01168 12.9038 4.22529 13.064C5.6283 14.1141 7.60804 13.6599 8.41587 12.0993C8.73142 11.4898 9.00231 10.858 9.31787 10.2485C9.41302 10.0651 9.56643 9.89431 9.73343 9.77008C10.1762 9.44108 10.6422 9.14508 11.0947 8.82966C12.5317 7.82713 12.7909 6.02587 11.6986 4.6497C11.6734 4.61767 11.6491 4.58467 11.6083 4.53033C11.6773 4.4556 11.7423 4.37893 11.8132 4.30711C13.0424 3.07651 14.2726 1.84688 15.5028 0.617249C15.8805 0.239722 16.0649 0.238752 16.4417 0.614337C21.5245 5.69396 26.6064 10.7736 31.6864 15.8561C31.8078 15.9784 31.8961 16.1337 32 16.2734V16.3986H31.999Z" fill="url(#paint1_linear_5_61)"/>
<path d="M31.9989 25.9591C31.7804 26.1852 31.5678 26.4172 31.3406 26.6345C31.2367 26.7335 31.1095 26.816 30.9813 26.8811C30.0289 27.3653 29.4016 28.1194 29.056 29.1278C28.9521 29.4306 28.7822 29.7101 28.6414 29.9993C28.4851 30.3196 28.2229 30.4933 27.8714 30.4923C27.5199 30.4923 27.2597 30.3157 27.1044 29.9944C26.7888 29.3393 26.4849 28.6784 26.1519 28.0321C26.0577 27.8486 25.9043 27.6759 25.7373 27.5536C25.2431 27.1906 24.7265 26.8578 24.2217 26.5094C23.5964 26.0784 23.5993 25.4195 24.2246 24.9837C24.378 24.877 24.5236 24.7537 24.6897 24.6702C25.7072 24.1607 26.3626 23.3504 26.7325 22.2847C26.8277 22.012 26.9762 21.7568 27.1063 21.4967C27.2636 21.1813 27.5151 21.0056 27.8753 21.0056C28.2355 21.0056 28.488 21.1822 28.6423 21.4996C28.9657 22.1625 29.2754 22.8321 29.6084 23.4901C29.6881 23.6483 29.8172 23.7997 29.9599 23.9035C30.4386 24.2529 30.9493 24.5596 31.4173 24.9216C31.6455 25.0982 31.8066 25.3603 31.9979 25.5835V25.9581L31.9989 25.9591Z" fill="url(#paint2_linear_5_61)"/>
<path d="M13.9355 32.3332C13.9491 32.2003 13.9734 32.0673 13.9734 31.9344C13.9754 29.5615 13.9724 27.1886 13.9763 24.8167C13.9783 23.8772 14.4832 23.1571 15.2958 22.9106C16.4037 22.5738 17.5775 23.292 17.6863 24.4469C17.761 25.2388 17.7009 26.0444 17.7009 26.8955C17.4348 26.8955 17.16 26.8936 16.8843 26.8955C16.2726 26.9004 15.859 27.2759 15.8561 27.8272C15.8532 28.3804 16.2677 28.7657 16.8736 28.7715C17.1435 28.7744 17.4135 28.7715 17.7484 28.7715V32.3332H13.9355Z" fill="url(#paint3_linear_5_61)"/>
<path d="M10.4955 6.46656C10.4809 6.80527 10.3333 7.07507 10.045 7.27111C9.4255 7.69231 8.8041 8.1106 8.19435 8.54538C8.05842 8.64243 7.93899 8.78801 7.86423 8.9365C7.50595 9.65176 7.15738 10.3728 6.82047 11.0988C6.63696 11.4938 6.3583 11.749 5.91555 11.751C5.4728 11.7539 5.18929 11.4986 5.00578 11.1056C4.66207 10.3719 4.31156 9.64011 3.95037 8.91417C3.88046 8.77345 3.76589 8.63564 3.63773 8.54538C3.04351 8.12418 2.43667 7.72142 1.83663 7.30799C1.14824 6.83341 1.15212 6.10262 1.8444 5.6261C2.3755 5.26022 2.90175 4.88561 3.44354 4.53623C3.72511 4.35474 3.92221 4.1325 4.06009 3.82485C4.36108 3.15132 4.69411 2.49234 5.00869 1.82464C5.19317 1.43449 5.4728 1.18507 5.92332 1.1909C6.3583 1.19672 6.63016 1.4374 6.80979 1.81881C7.15544 2.55251 7.50401 3.28428 7.86714 4.00924C7.9419 4.1587 8.06521 4.30136 8.20115 4.39744C8.80313 4.82641 9.41579 5.2379 10.0275 5.65328C10.3139 5.84738 10.4751 6.10942 10.4955 6.46462V6.46656Z" fill="url(#paint4_linear_5_61)"/>
<path d="M21.3381 2.76105C21.4508 2.75426 21.5634 2.74164 21.676 2.74164C22.8004 2.74067 23.9247 2.73873 25.0491 2.74164C25.82 2.74358 26.1763 3.10267 26.1773 3.86937C26.1783 5.10773 26.1773 6.34512 26.1773 7.50197C24.6121 5.93557 23.0111 4.33424 21.409 2.73193C21.3847 2.74164 21.3614 2.75134 21.3372 2.76105H21.3381Z" fill="url(#paint5_linear_5_61)"/>
<defs>
<linearGradient id="paint0_linear_5_61" x1="15.4736" y1="9.44983" x2="15.4736" y2="32.3334" gradientUnits="userSpaceOnUse">
<stop stop-color="#0D65D9"/>
<stop offset="1" stop-color="#073673"/>
</linearGradient>
<linearGradient id="paint1_linear_5_61" x1="16" y1="0.333374" x2="16" y2="19.4615" gradientUnits="userSpaceOnUse">
<stop stop-color="#0D65D9"/>
<stop offset="1" stop-color="#073673"/>
</linearGradient>
<linearGradient id="paint2_linear_5_61" x1="27.8765" y1="21.0056" x2="27.8765" y2="30.4923" gradientUnits="userSpaceOnUse">
<stop stop-color="#0D65D9"/>
<stop offset="1" stop-color="#073673"/>
</linearGradient>
<linearGradient id="paint3_linear_5_61" x1="15.842" y1="22.8273" x2="15.842" y2="32.3332" gradientUnits="userSpaceOnUse">
<stop stop-color="#0D65D9"/>
<stop offset="1" stop-color="#073673"/>
</linearGradient>
<linearGradient id="paint4_linear_5_61" x1="5.90912" y1="1.1908" x2="5.90912" y2="11.751" gradientUnits="userSpaceOnUse">
<stop stop-color="#0D65D9"/>
<stop offset="1" stop-color="#073673"/>
</linearGradient>
<linearGradient id="paint5_linear_5_61" x1="23.7574" y1="2.73193" x2="23.7574" y2="7.50197" gradientUnits="userSpaceOnUse">
<stop stop-color="#0D65D9"/>
<stop offset="1" stop-color="#073673"/>
</linearGradient>
</defs>
</svg>
