<svg width="32" height="32" viewBox="0 0 32 32" fill="none" xmlns="http://www.w3.org/2000/svg">
<path d="M24.4368 0C24.427 0.123338 24.4076 0.246677 24.4076 0.370015C24.4057 2.09772 24.4067 3.8264 24.4067 5.55411V5.94549H8.12427V0C10.4577 0 12.7911 0 15.1245 0C15.0284 0.129165 14.9333 0.258331 14.8692 0.343794C16.3116 1.78598 17.7471 3.22331 19.172 4.64801C19.3895 4.43727 19.6341 4.20128 19.8932 3.95168C19.8078 3.86234 19.7321 3.77882 19.6525 3.69918C18.5062 2.55223 17.3599 1.40528 16.2145 0.25736C16.1359 0.178695 16.0709 0.086434 15.999 0C18.8119 0 21.6239 0 24.4368 0V0ZM15.4904 3.98762C14.7906 3.28546 14.0752 2.56777 13.3822 1.87241C13.1609 2.08316 12.9153 2.31721 12.695 2.52698C13.4113 3.24273 14.1218 3.95266 14.8352 4.66549C15.0507 4.44213 15.2876 4.19642 15.4894 3.98762H15.4904Z" fill="url(#paint0_linear_5_156)"/>
<path d="M32 13.8178C31.7952 14.281 31.5001 14.6307 30.9429 14.6413C30.3761 14.652 29.9277 14.2694 29.8403 13.7012C29.7646 13.2069 30.0888 12.6932 30.579 12.5339C31.0953 12.3649 31.6467 12.6029 31.8913 13.0991C31.9272 13.172 31.9641 13.2448 32 13.3186V13.8188V13.8178Z" fill="url(#paint1_linear_5_156)"/>
<path d="M25.5103 5.96689V2.73096H30.8973V11.354C29.3948 11.7492 28.7454 12.4213 28.7483 13.575C28.7512 14.7094 29.4035 15.3795 30.9012 15.7747V30.9094H17.918C17.918 27.3064 17.918 23.7063 17.918 20.1071C18.7605 19.8779 18.9876 19.5749 18.9876 18.6834C18.9876 17.4646 18.9876 16.2448 18.9876 15.026V14.6472C19.1381 14.6472 19.2594 14.6472 19.3807 14.6472C20.9852 14.6472 22.5887 14.6472 24.1931 14.6472C25.0929 14.6472 25.4928 14.2471 25.4938 13.3546C25.4938 13.0758 25.4938 12.7971 25.4938 12.4854C26.1489 12.4854 26.7711 12.4854 27.3933 12.4854C28.3523 12.4854 28.7464 12.095 28.7464 11.1452C28.7464 9.83214 28.7473 8.51912 28.7464 7.2061C28.7464 6.40003 28.3212 5.97272 27.5137 5.96883C26.8575 5.96495 26.2023 5.96883 25.5093 5.96883L25.5103 5.96689ZM19.536 21.1793C19.5292 21.288 19.5215 21.3599 19.5215 21.4328C19.5215 23.2984 19.5205 25.163 19.5224 27.0286C19.5224 27.1733 19.537 27.3209 19.5632 27.4637C19.7233 28.3183 20.6095 28.9049 21.4608 28.7233C22.2761 28.5495 22.7702 27.9231 22.7741 27.0267C22.7808 25.6826 22.776 24.3385 22.776 22.9944C22.776 21.1705 22.775 19.3477 22.777 17.5238C22.777 17.0741 22.9711 16.8275 23.3118 16.8226C23.6602 16.8178 23.8641 17.08 23.866 17.5393C23.867 17.987 23.8621 18.4357 23.868 18.8834C23.8718 19.2165 23.8447 19.5574 23.9087 19.8789C24.0757 20.7141 24.8299 21.2298 25.6908 21.1414C26.4828 21.0598 27.106 20.3771 27.1147 19.5409C27.1273 18.4153 27.1186 17.2897 27.1186 16.1651C27.1186 16.0331 27.1186 15.901 27.1186 15.7602H26.0334C26.0334 15.8913 26.0334 16.0029 26.0334 16.1156C26.0334 17.1781 26.0354 18.2415 26.0315 19.304C26.0315 19.4487 26.0315 19.6031 25.981 19.7342C25.8849 19.9867 25.6772 20.0974 25.4074 20.0644C25.1356 20.0314 24.9483 19.8051 24.9444 19.4856C24.9357 18.7562 24.9522 18.0269 24.9357 17.2975C24.9172 16.4409 24.2242 15.764 23.371 15.7427C22.411 15.7184 21.6908 16.439 21.6899 17.4422C21.686 20.5791 21.6889 23.715 21.6879 26.8519C21.6879 26.9665 21.6947 27.082 21.6811 27.1957C21.6471 27.4725 21.4181 27.6696 21.1473 27.6686C20.8755 27.6677 20.6513 27.4676 20.6192 27.1908C20.6076 27.0879 20.6124 26.983 20.6124 26.8781C20.6124 25.096 20.6124 23.3149 20.6124 21.5328C20.6124 21.4211 20.6124 21.3104 20.6124 21.1803H19.5341L19.536 21.1793ZM26.5751 22.266C26.5751 23.2216 26.5469 24.1394 26.5828 25.0533C26.6158 25.8982 27.3069 26.5489 28.1184 26.577C29.0676 26.6101 29.815 25.9234 29.8189 24.9697C29.8296 22.3126 29.8228 19.6555 29.8228 16.9984C29.8228 16.9489 29.8141 16.8993 29.8082 16.842H28.7464V17.2412C28.7464 19.7526 28.7464 22.2641 28.7464 24.7745C28.7464 25.2359 28.5454 25.5 28.1999 25.499C27.8544 25.4971 27.6661 25.2426 27.6641 24.7687C27.6622 24.3307 27.6641 23.8937 27.6641 23.4557C27.6641 23.0624 27.6641 22.6691 27.6641 22.265H26.576L26.5751 22.266Z" fill="url(#paint2_linear_5_156)"/>
<path d="M14.6254 30.9192H1.67136C1.55489 30.4025 1.57139 30.386 2.01011 30.1636C2.82739 29.7479 3.26708 29.0768 3.24379 28.1562C3.22049 27.2491 2.75168 26.6111 1.9344 26.2284C1.84025 26.1847 1.74125 26.1517 1.63642 26.1109V10.1274C2.35469 10.3644 3.06616 10.3712 3.8019 10.1206C3.8019 10.5411 3.79899 10.9247 3.8019 11.3083C3.80773 12.0377 4.23384 12.4708 4.96764 12.4825C5.54031 12.4912 6.11299 12.4844 6.68663 12.4844C6.79825 12.4844 6.90891 12.4844 7.0545 12.4844C7.0545 12.8107 7.0545 13.1002 7.0545 13.3896C7.05644 14.2461 7.45537 14.6453 8.32021 14.6463C9.94505 14.6482 11.5699 14.6463 13.1947 14.6463C13.3064 14.6463 13.418 14.6463 13.5607 14.6463C13.5607 14.8677 13.5607 15.0522 13.5607 15.2377C13.5607 16.3944 13.5607 17.551 13.5607 18.7077C13.5607 19.5788 13.7878 19.8808 14.6264 20.112V30.9201L14.6254 30.9192ZM12.4774 21.1803C12.4774 21.3425 12.4774 21.4658 12.4774 21.5901C12.4774 23.3508 12.4774 25.1116 12.4765 26.8723C12.4765 26.9966 12.4765 27.1238 12.4503 27.2443C12.393 27.5142 12.2086 27.658 11.9397 27.6628C11.6708 27.6677 11.4806 27.5269 11.4156 27.2608C11.3835 27.1316 11.3855 26.9927 11.3855 26.8587C11.3835 23.7646 11.3855 20.6694 11.3826 17.5753C11.3826 17.3781 11.3826 17.1752 11.3379 16.9858C11.1428 16.1652 10.4168 15.6689 9.56068 15.7514C8.77641 15.8272 8.15132 16.5187 8.13385 17.3519C8.12026 18.0395 8.1319 18.7271 8.12899 19.4147C8.12705 19.8323 7.92516 20.0731 7.58641 20.0702C7.24863 20.0673 7.05547 19.8294 7.0545 19.404C7.05256 18.2998 7.0545 17.1956 7.0545 16.0904C7.0545 15.9806 7.0545 15.8699 7.0545 15.7612H5.96351C5.96351 16.0836 5.96254 16.3846 5.96351 16.6847C5.96933 17.6948 5.93148 18.7086 5.99457 19.7148C6.05863 20.7413 7.11371 21.391 8.09114 21.0754C8.78999 20.8491 9.20834 20.2567 9.21902 19.4526C9.22872 18.7543 9.21513 18.056 9.22969 17.3587C9.23649 17.0314 9.46653 16.8207 9.7616 16.8197C10.0518 16.8197 10.277 17.0402 10.3042 17.3558C10.3119 17.449 10.3071 17.5432 10.3071 17.6375C10.3071 20.7636 10.309 23.8889 10.3042 27.0151C10.3042 27.4492 10.4061 27.8386 10.6886 28.1727C11.136 28.7 11.8271 28.8875 12.4697 28.6592C13.12 28.4281 13.5539 27.8386 13.5558 27.1316C13.5636 25.2038 13.5587 23.2761 13.5578 21.3493C13.5578 21.2988 13.548 21.2483 13.5413 21.1783H12.4765L12.4774 21.1803ZM3.25058 16.8304C3.25058 17.7618 3.25058 18.6659 3.25058 19.5701C3.25058 21.3619 3.24476 23.1547 3.2535 24.9465C3.25835 25.87 3.97468 26.578 4.87543 26.579C5.782 26.58 6.48668 25.8778 6.50221 24.9542C6.50803 24.5998 6.50318 24.2453 6.50318 23.8918C6.50318 23.3537 6.50318 22.8148 6.50318 22.269H5.42675C5.42675 23.0876 5.42675 23.8879 5.42675 24.6881C5.42675 25.2339 5.24038 25.5059 4.87154 25.5C4.51241 25.4942 4.33381 25.232 4.33381 24.7027C4.33381 22.2019 4.33381 19.7012 4.33381 17.2014V16.8294H3.25058V16.8304Z" fill="url(#paint3_linear_5_156)"/>
<path d="M7.0547 11.3772H4.89795V7.07886H27.6457V11.3724H25.4948C25.4948 11.0713 25.4958 10.7644 25.4948 10.4566C25.4919 9.66314 25.0726 9.22805 24.2873 9.22805C18.945 9.22514 13.6016 9.22611 8.25926 9.22805C7.46916 9.22805 7.05761 9.65343 7.0547 10.4517C7.05373 10.7518 7.0547 11.0509 7.0547 11.3772Z" fill="url(#paint4_linear_5_156)"/>
<path d="M24.3874 10.3381V13.5527H18.9878C18.9878 13.241 18.9887 12.9331 18.9878 12.6262C18.9829 11.8269 18.5481 11.3928 17.7483 11.3919C16.7592 11.3899 15.7701 11.3899 14.781 11.3919C13.9948 11.3928 13.5639 11.824 13.561 12.6078C13.56 12.9098 13.561 13.2118 13.561 13.5391H8.15063V10.3381H24.3874Z" fill="url(#paint5_linear_5_156)"/>
<path d="M14.6626 12.5018H17.8696V16.8041H14.6626V12.5018Z" fill="url(#paint6_linear_5_156)"/>
<path d="M16.7871 32.0001H15.7544V20.0984H16.7871V32.0001Z" fill="url(#paint7_linear_5_156)"/>
<path d="M4.5738 6.00857C3.90115 6.2533 3.75943 6.78841 3.79729 7.43521C3.82058 7.83922 3.78855 8.24711 3.80699 8.65209C3.8167 8.86283 3.74779 8.97743 3.55463 9.05027C2.73541 9.36104 1.97152 9.26587 1.30567 8.69579C0.639814 8.12571 0.405891 7.37986 0.616519 6.52911C0.828117 5.67643 1.39109 5.13937 2.2433 4.94222C3.19064 4.72274 4.17292 5.17822 4.57282 6.00857H4.5738Z" fill="url(#paint8_linear_5_156)"/>
<path d="M1.63647 3.94977V2.73096H7.03903V5.96495C6.64592 5.96495 6.26543 5.97175 5.88591 5.95815C5.82573 5.95621 5.74711 5.87851 5.71411 5.81636C4.79589 4.1071 3.5923 3.54188 1.72674 3.94977C1.70733 3.95366 1.68598 3.94977 1.63647 3.94977Z" fill="url(#paint9_linear_5_156)"/>
<path d="M0.000114317 28.1989C0.00787939 27.5968 0.506785 27.1209 1.1144 27.1335C1.70164 27.1462 2.18307 27.6454 2.17142 28.229C2.15978 28.8146 1.66766 29.2993 1.08334 29.3002C0.484461 29.3002 -0.00862139 28.8001 0.000114317 28.1979V28.1989Z" fill="url(#paint10_linear_5_156)"/>
<path d="M14.6577 17.9191H17.8763V18.9747H14.6577V17.9191Z" fill="url(#paint11_linear_5_156)"/>
<defs>
<linearGradient id="paint0_linear_5_156" x1="16.2805" y1="0" x2="16.2805" y2="5.94549" gradientUnits="userSpaceOnUse">
<stop stop-color="#0D65D9"/>
<stop offset="1" stop-color="#073673"/>
</linearGradient>
<linearGradient id="paint1_linear_5_156" x1="30.9147" y1="12.4799" x2="30.9147" y2="14.6416" gradientUnits="userSpaceOnUse">
<stop stop-color="#0D65D9"/>
<stop offset="1" stop-color="#073673"/>
</linearGradient>
<linearGradient id="paint2_linear_5_156" x1="24.4096" y1="2.73096" x2="24.4096" y2="30.9094" gradientUnits="userSpaceOnUse">
<stop stop-color="#0D65D9"/>
<stop offset="1" stop-color="#073673"/>
</linearGradient>
<linearGradient id="paint3_linear_5_156" x1="8.11814" y1="10.1206" x2="8.11814" y2="30.9201" gradientUnits="userSpaceOnUse">
<stop stop-color="#0D65D9"/>
<stop offset="1" stop-color="#073673"/>
</linearGradient>
<linearGradient id="paint4_linear_5_156" x1="16.2718" y1="7.07886" x2="16.2718" y2="11.3772" gradientUnits="userSpaceOnUse">
<stop stop-color="#0D65D9"/>
<stop offset="1" stop-color="#073673"/>
</linearGradient>
<linearGradient id="paint5_linear_5_156" x1="16.269" y1="10.3381" x2="16.269" y2="13.5527" gradientUnits="userSpaceOnUse">
<stop stop-color="#0D65D9"/>
<stop offset="1" stop-color="#073673"/>
</linearGradient>
<linearGradient id="paint6_linear_5_156" x1="16.2661" y1="12.5018" x2="16.2661" y2="16.8041" gradientUnits="userSpaceOnUse">
<stop stop-color="#0D65D9"/>
<stop offset="1" stop-color="#073673"/>
</linearGradient>
<linearGradient id="paint7_linear_5_156" x1="16.2708" y1="20.0984" x2="16.2708" y2="32.0001" gradientUnits="userSpaceOnUse">
<stop stop-color="#0D65D9"/>
<stop offset="1" stop-color="#073673"/>
</linearGradient>
<linearGradient id="paint8_linear_5_156" x1="2.55765" y1="4.88733" x2="2.55765" y2="9.22501" gradientUnits="userSpaceOnUse">
<stop stop-color="#0D65D9"/>
<stop offset="1" stop-color="#073673"/>
</linearGradient>
<linearGradient id="paint9_linear_5_156" x1="4.33775" y1="2.73096" x2="4.33775" y2="5.96665" gradientUnits="userSpaceOnUse">
<stop stop-color="#0D65D9"/>
<stop offset="1" stop-color="#073673"/>
</linearGradient>
<linearGradient id="paint10_linear_5_156" x1="1.08582" y1="27.1333" x2="1.08582" y2="29.3002" gradientUnits="userSpaceOnUse">
<stop stop-color="#0D65D9"/>
<stop offset="1" stop-color="#073673"/>
</linearGradient>
<linearGradient id="paint11_linear_5_156" x1="16.267" y1="17.9191" x2="16.267" y2="18.9747" gradientUnits="userSpaceOnUse">
<stop stop-color="#0D65D9"/>
<stop offset="1" stop-color="#073673"/>
</linearGradient>
</defs>
</svg>
