<svg width="33" height="33" viewBox="0 0 33 33" fill="none" xmlns="http://www.w3.org/2000/svg">
<path d="M11.7982 12.2766C9.99885 12.2766 8.26849 12.2766 6.53813 12.2766C6.01478 12.2766 5.49036 12.2841 4.96701 12.2712C4.58803 12.2627 4.31627 12.041 4.30459 11.6662C4.27805 10.877 4.2961 10.0867 4.2961 9.27283H22.2557C22.2557 10.0963 22.2812 10.908 22.2451 11.7165C22.2281 12.0956 21.9277 12.2744 21.4744 12.2744C19.4819 12.2766 17.4882 12.2744 15.4957 12.2744C15.2717 12.2744 15.0466 12.2744 14.7865 12.2744C14.8279 12.3837 14.8492 12.4576 14.8821 12.5261C15.3025 13.4042 15.7175 14.2844 16.1528 15.1561C16.2059 15.2621 16.3598 15.3831 16.4681 15.3842C19.5318 15.3949 22.5955 15.3917 25.6591 15.3896C25.6921 15.3896 25.7239 15.3746 25.7175 15.3756C25.4681 14.3412 25.2186 13.3089 24.9691 12.2777C24.9203 12.0774 24.864 11.8772 24.8322 11.6748C24.7791 11.3439 24.9224 11.1479 25.2473 11.1468C27.001 11.1393 28.7547 11.1383 30.5084 11.1468C30.864 11.149 30.9893 11.3728 30.8938 11.784C30.6613 12.7777 30.4256 13.7704 30.1857 14.762C30.1379 14.958 30.0668 15.1497 29.9988 15.3692C30.0785 15.3767 30.1729 15.3917 30.2674 15.3917C30.8937 15.3938 31.5201 15.3917 32.1464 15.3928C32.7324 15.3928 32.8269 15.487 32.8269 16.0653C32.8269 18.5807 32.8269 21.0972 32.8269 23.6127C32.8269 26.3808 32.8226 29.1501 32.8332 31.9182C32.8343 32.2234 32.7695 32.3498 32.4394 32.3316C31.9054 32.3038 31.3683 32.307 30.8343 32.3305C30.5233 32.3444 30.4256 32.2524 30.4277 31.9279C30.4405 29.3546 30.4352 26.7813 30.4352 24.2081V18.6921H24.0604C23.5413 17.1361 22.6645 16.4069 21.3895 16.4401C20.1358 16.4733 19.2855 17.2175 18.8566 18.6814H3.22816V19.1194C3.22816 23.3696 3.22816 27.6209 3.22816 31.8711C3.22816 32.1731 3.07918 32.3245 2.78123 32.3252C2.2462 32.3252 1.71011 32.3155 1.17508 32.3295C0.935163 32.3402 0.833252 32.2813 0.833252 32.0114C0.839621 26.6464 0.837498 21.2814 0.839621 15.9164C0.839621 15.5213 0.982933 15.3981 1.43092 15.3981C3.08272 15.396 4.73346 15.3981 6.38527 15.3971C7.5806 15.3971 8.77699 15.3885 9.97231 15.4035C10.2292 15.4067 10.3534 15.3189 10.4596 15.0897C10.8853 14.1666 11.3311 13.2532 11.7982 12.2777V12.2766ZM27.8895 14.1238C28.3481 14.1152 28.725 13.7233 28.7207 13.2586C28.7175 12.7949 28.3322 12.4083 27.8736 12.4083C27.4033 12.4083 27.0063 12.8206 27.0233 13.2918C27.0402 13.7586 27.4298 14.1324 27.8895 14.1238ZM13.2844 11.3021C13.5817 11.2989 13.8258 11.0483 13.8173 10.7549C13.8088 10.4625 13.5498 10.2205 13.2568 10.2312C12.9766 10.242 12.7441 10.4829 12.742 10.7645C12.7398 11.0622 12.984 11.3053 13.2834 11.301L13.2844 11.3021Z" fill="url(#paint0_linear_5_146)"/>
<path d="M22.2802 8.4751H4.28125C4.28125 8.33803 4.28125 8.21595 4.28125 8.09281C4.28125 5.81831 4.28125 3.5438 4.28125 1.2693C4.28231 0.537908 4.48932 0.333374 5.2218 0.333374C10.5976 0.333374 15.9723 0.333374 21.3481 0.333374C22.0732 0.333374 22.2802 0.542191 22.2802 1.28001C22.2802 3.55451 22.2802 5.82901 22.2802 8.10351V8.4751Z" fill="url(#paint1_linear_5_146)"/>
<path d="M23.6728 32.3167H21.8204C21.8204 31.7566 21.8204 31.2094 21.8204 30.6611C21.8204 30.5466 21.8182 30.432 21.8204 30.3163C21.8236 30.0582 21.7078 29.8794 21.4488 29.8773C21.1898 29.8751 21.0698 30.0507 21.0698 30.3099C21.0698 30.8614 21.0698 31.4118 21.0698 31.9633C21.0698 32.0747 21.0698 32.186 21.0698 32.3135H19.2185C19.2185 32.1925 19.2185 32.0725 19.2185 31.9515C19.2185 31.0788 19.2216 30.206 19.2163 29.3333C19.2142 29.0131 19.0529 28.8375 18.8023 28.8685C18.5274 28.9028 18.4658 29.0955 18.4669 29.3397C18.4701 30.2007 18.4679 31.0616 18.4679 31.9237C18.4679 32.0468 18.4679 32.17 18.4679 32.3295H17.0093C16.3034 32.3295 15.5974 32.3381 14.8926 32.3231C14.7418 32.3199 14.5932 32.2321 14.4446 32.1839C14.5157 32.0511 14.5645 31.898 14.6622 31.7909C14.9085 31.52 15.1718 31.2662 15.4361 31.0134C16.1792 30.3013 16.5401 29.4318 16.5231 28.3973C16.5146 27.8491 16.5221 27.2997 16.5221 26.7268H26.3554C26.3607 26.8521 26.3692 26.9838 26.3734 27.1155C26.3936 27.803 26.365 28.4969 26.4446 29.178C26.5263 29.8816 26.9032 30.4641 27.4053 30.9588C27.7227 31.2715 28.0433 31.5821 28.348 31.9076C28.4127 31.9772 28.4403 32.1111 28.4297 32.2096C28.4244 32.2567 28.2896 32.3231 28.2132 32.3242C26.9637 32.3317 25.7142 32.3295 24.4255 32.3295V31.9312C24.4255 30.5765 24.4244 29.2208 24.4265 27.8662C24.4265 27.6467 24.4085 27.4443 24.1643 27.3661C23.8862 27.2772 23.6771 27.4796 23.676 27.8469C23.6728 29.2016 23.6749 30.5573 23.6749 31.9119C23.6749 32.0361 23.6749 32.1603 23.6749 32.3178L23.6728 32.3167Z" fill="url(#paint2_linear_5_146)"/>
<path d="M16.5318 25.9129C16.5318 25.2843 16.5042 24.6879 16.5392 24.0946C16.5743 23.5056 17.0371 23.1073 17.6454 23.0966C18.2802 23.0848 18.915 23.0944 19.5913 23.0944C19.5913 22.9263 19.5913 22.7924 19.5913 22.6586C19.5913 21.4753 19.5743 20.2931 19.5966 19.1098C19.6231 17.6609 21.0042 16.7667 22.2505 17.3846C22.9777 17.7444 23.2993 18.3719 23.3025 19.1751C23.3057 20.3466 23.3025 21.5181 23.3036 22.6886C23.3036 22.8117 23.3036 22.9338 23.3036 23.0923C23.9182 23.0923 24.4957 23.0923 25.0732 23.0923C25.9437 23.0944 26.3662 23.5217 26.3694 24.4051C26.3715 24.8977 26.3694 25.3893 26.3694 25.9118H16.5308L16.5318 25.9129ZM22.0944 19.1301C22.0998 18.7649 21.8237 18.4726 21.4639 18.463C21.0881 18.4533 20.7908 18.7457 20.794 19.1237C20.7961 19.4856 21.0838 19.7758 21.4416 19.7769C21.7993 19.778 22.0891 19.491 22.0944 19.129V19.1301Z" fill="url(#paint3_linear_5_146)"/>
<path d="M12.4458 26.7194V29.8977H4.00098V26.7194H12.4458ZM8.20904 28.6833C8.69949 28.6833 8.89057 28.5784 8.88845 28.3096C8.88632 28.0387 8.68993 27.9294 8.20586 27.9305C7.74301 27.9305 7.55724 28.0333 7.5445 28.2946C7.53176 28.5698 7.72603 28.6833 8.20798 28.6833H8.20904Z" fill="url(#paint4_linear_5_146)"/>
<path d="M3.99146 25.9097V23.0452H12.4352V25.9097H3.99146ZM8.35133 24.1096C7.73455 24.1096 7.54559 24.2124 7.54453 24.4823C7.54453 24.7553 7.74198 24.8678 8.22288 24.8678C8.69421 24.8678 8.9182 24.7414 8.88423 24.4683C8.83328 24.0603 8.51162 24.1075 8.35133 24.1096Z" fill="url(#paint5_linear_5_146)"/>
<path d="M3.99878 22.241V19.46H12.4287V22.241H3.99878ZM8.21215 21.2312C8.69623 21.2312 8.88625 21.1273 8.88944 20.8606C8.89262 20.5897 8.69304 20.473 8.22171 20.473C7.744 20.473 7.54867 20.5822 7.54443 20.851C7.54018 21.1209 7.73339 21.2312 8.21109 21.2312H8.21215Z" fill="url(#paint6_linear_5_146)"/>
<path d="M29.6198 10.3663H26.1367C26.1367 9.47745 26.0762 8.60363 26.1537 7.74159C26.2323 6.87633 27.106 6.23596 27.9573 6.29379C28.8671 6.3559 29.5858 7.0541 29.6145 7.9504C29.6399 8.74926 29.6198 9.54919 29.6198 10.3652V10.3663Z" fill="url(#paint7_linear_5_146)"/>
<defs>
<linearGradient id="paint0_linear_5_146" x1="16.8333" y1="9.27283" x2="16.8333" y2="32.3333" gradientUnits="userSpaceOnUse">
<stop stop-color="#0D65D9"/>
<stop offset="1" stop-color="#073673"/>
</linearGradient>
<linearGradient id="paint1_linear_5_146" x1="13.2807" y1="0.333374" x2="13.2807" y2="8.4751" gradientUnits="userSpaceOnUse">
<stop stop-color="#0D65D9"/>
<stop offset="1" stop-color="#073673"/>
</linearGradient>
<linearGradient id="paint2_linear_5_146" x1="21.4383" y1="26.7268" x2="21.4383" y2="32.332" gradientUnits="userSpaceOnUse">
<stop stop-color="#0D65D9"/>
<stop offset="1" stop-color="#073673"/>
</linearGradient>
<linearGradient id="paint3_linear_5_146" x1="21.4459" y1="17.1862" x2="21.4459" y2="25.9129" gradientUnits="userSpaceOnUse">
<stop stop-color="#0D65D9"/>
<stop offset="1" stop-color="#073673"/>
</linearGradient>
<linearGradient id="paint4_linear_5_146" x1="8.22337" y1="26.7194" x2="8.22337" y2="29.8977" gradientUnits="userSpaceOnUse">
<stop stop-color="#0D65D9"/>
<stop offset="1" stop-color="#073673"/>
</linearGradient>
<linearGradient id="paint5_linear_5_146" x1="8.21332" y1="23.0452" x2="8.21332" y2="25.9097" gradientUnits="userSpaceOnUse">
<stop stop-color="#0D65D9"/>
<stop offset="1" stop-color="#073673"/>
</linearGradient>
<linearGradient id="paint6_linear_5_146" x1="8.21375" y1="19.46" x2="8.21375" y2="22.241" gradientUnits="userSpaceOnUse">
<stop stop-color="#0D65D9"/>
<stop offset="1" stop-color="#073673"/>
</linearGradient>
<linearGradient id="paint7_linear_5_146" x1="27.8708" y1="6.29016" x2="27.8708" y2="10.3663" gradientUnits="userSpaceOnUse">
<stop stop-color="#0D65D9"/>
<stop offset="1" stop-color="#073673"/>
</linearGradient>
</defs>
</svg>
