<svg width="33" height="32" viewBox="0 0 33 32" fill="none" xmlns="http://www.w3.org/2000/svg">
<path d="M17.9071 0C17.9131 0.103818 17.9229 0.206665 17.9229 0.310483C17.9229 4.05472 17.9229 7.79895 17.9229 11.5432C17.9229 11.6557 17.9229 11.7683 17.9229 11.9012H15.7584C15.7485 11.8246 15.7297 11.746 15.7297 11.6674C15.7288 7.83 15.7288 3.99165 15.7297 0.154271C15.7297 0.102848 15.7396 0.0514238 15.7455 0C16.4664 0 17.1863 0 17.9071 0V0Z" fill="url(#paint0_linear_5_170)"/>
<path d="M20.1339 14.3114C22.7764 14.7257 25.2678 15.4107 27.388 17.0262C27.8758 17.3978 28.3231 17.8499 28.6934 18.3351C29.7915 19.7749 29.7737 21.4195 28.6904 22.873C27.8145 24.048 26.6088 24.8125 25.2905 25.416C23.2228 26.363 21.0286 26.8258 18.7653 27.0034C16.2334 27.2023 13.7301 27.0373 11.2653 26.4202C9.50961 25.9807 7.82497 25.3598 6.38917 24.2478C5.81544 23.8035 5.27628 23.2727 4.85462 22.6877C3.86517 21.3157 3.92343 19.7594 4.91585 18.3836C5.60511 17.4288 6.53334 16.7487 7.55637 16.1792C9.1551 15.2885 11.6278 14.521 13.5208 14.3347V14.6665C13.5208 15.8628 13.5208 17.0601 13.5208 18.2565C13.5208 19.0754 13.9394 19.4945 14.762 19.4955C16.1386 19.4974 17.5151 19.4974 18.8927 19.4955C19.7142 19.4945 20.1329 19.0754 20.1339 18.2565C20.1349 17.0699 20.1339 15.8842 20.1339 14.6976C20.1339 14.584 20.1339 14.4715 20.1339 14.3114ZM5.24764 20.5997C5.26542 20.7607 5.27134 20.8849 5.29405 21.0052C5.44316 21.7999 5.90925 22.4082 6.49483 22.9399C7.39442 23.7569 8.45498 24.3206 9.59157 24.7359C13.7499 26.2534 17.9812 26.3776 22.261 25.3132C23.913 24.9018 25.4772 24.2779 26.8281 23.2223C27.4393 22.7439 27.9646 22.187 28.2332 21.4477C28.329 21.1838 28.3626 20.8995 28.4288 20.6084H27.3573C27.2517 20.881 27.2102 21.1653 27.0532 21.3545C26.6878 21.7931 26.3106 22.2433 25.8583 22.5848C24.7089 23.4522 23.3669 23.9403 21.9766 24.2954C19.2876 24.9814 16.5612 25.0832 13.817 24.7155C12.0139 24.4739 10.266 24.0237 8.66827 23.1388C7.60871 22.5518 6.60049 21.894 6.31116 20.6006H5.24863L5.24764 20.5997Z" fill="url(#paint1_linear_5_170)"/>
<path d="M14.6443 13.0131H19.0149V18.397H14.6443V13.0131Z" fill="url(#paint2_linear_5_170)"/>
<path d="M3.06126 7.57964C3.37429 7.57964 3.66955 7.56799 3.96283 7.5874C4.03294 7.59225 4.14058 7.69025 4.1544 7.7601C4.40917 9.01562 5.05005 9.61718 6.32488 9.76175V10.8125C5.0224 10.9629 4.28179 11.6693 4.12971 12.9743H3.12248C2.98917 12.6017 2.9082 12.232 2.73045 11.9128C2.38582 11.2919 1.82395 10.9377 1.10308 10.8601C0.90855 10.8387 0.821652 10.7834 0.834489 10.5777C0.851276 10.3099 0.838439 10.0412 0.838439 9.77534C2.31571 9.62592 2.98226 8.66536 3.06027 7.57867L3.06126 7.57964Z" fill="url(#paint3_linear_5_170)"/>
<path d="M28.4297 5.95534C28.7338 5.95534 29.0389 5.9437 29.3421 5.96407C29.4063 5.96795 29.5021 6.08147 29.5159 6.15715C29.741 7.36319 30.4372 8.01035 31.7071 8.13648V9.18242C30.379 9.33573 29.6314 10.0508 29.4853 11.3577H28.4297C28.3882 11.1482 28.3714 10.9396 28.3043 10.7484C28.0041 9.88586 27.4017 9.36095 26.4725 9.23676C26.2641 9.20862 26.1752 9.14944 26.1901 8.9321C26.2078 8.67498 26.194 8.41592 26.194 8.15007C27.534 7.99968 28.2697 7.27683 28.4287 5.95534H28.4297Z" fill="url(#paint4_linear_5_170)"/>
<path d="M20.1477 3.77241V2.72744C21.466 2.58869 22.1967 1.86973 22.3607 0.56958H23.4163C23.5723 1.84159 24.2922 2.58287 25.6322 2.72841V3.7695C24.3218 3.91019 23.5782 4.62915 23.4192 5.93706H22.3646C22.2046 4.65826 21.4927 3.92183 20.1477 3.77338V3.77241Z" fill="url(#paint5_linear_5_170)"/>
<path d="M12.4206 5.39365C11.1675 5.5062 10.337 6.24263 10.1829 7.56121H9.13622C8.97131 6.29017 8.26724 5.54695 6.9292 5.40044V4.3545C8.23366 4.20896 8.97032 3.49776 9.12634 2.1947H10.1958C10.2876 3.16981 10.7596 3.86258 11.7007 4.2109C11.8182 4.25456 11.9476 4.30696 12.0671 4.30017C12.4018 4.27882 12.4472 4.4525 12.4245 4.72126C12.4048 4.94539 12.4206 5.17243 12.4206 5.39365Z" fill="url(#paint6_linear_5_170)"/>
<path d="M11.296 27.5952C12.4247 27.7699 13.4971 27.9358 14.6219 28.1094C14.4984 28.5955 14.3809 29.0962 14.2407 29.5901C14.1617 29.8695 14.06 30.1451 13.9445 30.4119C13.6512 31.0911 12.9432 31.451 12.2075 31.2968C11.6101 31.1716 11.0452 30.9562 10.8072 30.3498C10.6947 30.0635 10.6305 29.7046 10.6986 29.4135C10.8457 28.7915 11.0936 28.1929 11.296 27.5942V27.5952Z" fill="url(#paint7_linear_5_170)"/>
<path d="M18.9951 28.1172C20.1564 27.9387 21.2288 27.7728 22.3693 27.5972C22.5678 28.2366 22.7831 28.8847 22.9638 29.5435C23.0102 29.7123 22.9678 29.918 22.9243 30.0966C22.7545 30.7932 22.08 31.2745 21.2318 31.322C20.5553 31.3598 19.9283 30.9533 19.6962 30.2877C19.4484 29.5746 19.2311 28.8507 18.9951 28.1172Z" fill="url(#paint8_linear_5_170)"/>
<path d="M17.9091 28.1618C18.0987 28.9234 18.3061 29.6647 18.4582 30.4167C18.5046 30.6437 18.4463 30.9212 18.3515 31.1405C17.9842 31.9933 17.0994 32.1331 16.1465 31.8983C15.4108 31.7168 15.0474 30.9746 15.236 30.1838C15.3634 29.6482 15.4938 29.1136 15.6399 28.5829C15.7811 28.0706 15.6537 28.1579 16.2166 28.1608C16.7656 28.1637 17.3147 28.1608 17.9082 28.1608L17.9091 28.1618Z" fill="url(#paint9_linear_5_170)"/>
<path d="M23.4004 27.3332C24.2634 26.9878 25.0821 26.6579 25.9037 26.3358C25.9609 26.3135 26.0498 26.3183 26.1051 26.3465C27.2052 26.9044 27.3039 28.1958 26.3075 28.9225C25.9817 29.1602 25.6548 29.3815 25.2223 29.3785C24.6515 29.3747 24.2121 29.1369 23.9583 28.6411C23.7411 28.2181 23.5821 27.766 23.4004 27.3342V27.3332Z" fill="url(#paint10_linear_5_170)"/>
<path d="M10.2523 27.3303C10.0755 27.7524 9.91454 28.1803 9.71902 28.5926C9.44746 29.1651 8.87571 29.4756 8.23286 29.3533C7.44189 29.2039 6.37047 28.3772 6.71016 27.3197C6.85433 26.8714 7.19502 26.6026 7.55446 26.3436C7.59593 26.3135 7.66999 26.3242 7.72826 26.3222C7.74702 26.3222 7.76578 26.3407 7.78553 26.3484C8.59526 26.6705 9.40401 26.9927 10.2523 27.3303Z" fill="url(#paint11_linear_5_170)"/>
<path d="M3.15191 19.6817C2.92676 20.6714 3.07884 21.5786 3.46988 22.5149C3.03835 22.5945 2.64039 22.7148 2.23849 22.7332C1.52849 22.7662 0.932051 22.2267 0.860953 21.533C0.833303 21.2662 0.832316 20.9916 0.860953 20.7248C0.942914 19.9224 1.70525 19.379 2.514 19.5314C2.71939 19.5702 2.92084 19.6264 3.1529 19.6808L3.15191 19.6817Z" fill="url(#paint12_linear_5_170)"/>
<path d="M30.5072 19.7127C31.3545 19.3576 32.0793 19.4808 32.5158 20.0387C32.9433 20.585 32.9424 21.7231 32.4921 22.2354C31.9095 22.8971 31.2656 22.8467 30.207 22.4605C30.5694 21.5795 30.7255 20.6723 30.5072 19.7127Z" fill="url(#paint13_linear_5_170)"/>
<path d="M6.50154 25.7167C6.05322 25.9806 5.61972 26.2784 5.14968 26.5016C4.65298 26.7374 4.1306 26.6695 3.72573 26.3027C3.16978 25.7991 2.95253 25.1432 3.10757 24.4087C3.19348 24.0032 3.47096 23.7073 3.86299 23.5404C3.9331 23.5103 4.0832 23.5316 4.12369 23.584C4.77147 24.4107 5.57331 25.0646 6.45612 25.6313C6.47093 25.641 6.47587 25.6662 6.50154 25.7167Z" fill="url(#paint14_linear_5_170)"/>
<path d="M27.1875 25.7256C27.8136 25.1929 28.4219 24.6816 29.0213 24.1586C29.1704 24.0286 29.3126 23.8772 29.4123 23.7094C29.5802 23.427 29.7599 23.4852 29.9781 23.6308C30.4561 23.95 30.6931 24.5147 30.5726 25.0706C30.5706 25.0803 30.5686 25.091 30.5667 25.1017C30.2497 26.7162 28.9531 26.9918 27.936 26.1913C27.699 26.004 27.4205 25.8672 27.1895 25.7246L27.1875 25.7256Z" fill="url(#paint15_linear_5_170)"/>
<path d="M3.59642 18.4311C2.79261 17.8266 2.97233 16.8427 3.5036 16.0636C3.86897 15.5271 4.7735 15.203 5.76888 16.018C4.88607 16.6865 4.12077 17.4569 3.59642 18.4311Z" fill="url(#paint16_linear_5_170)"/>
<path d="M30.057 18.4262C29.5326 17.4646 28.788 16.6923 27.9082 16.0403C28.4967 15.3931 29.5119 15.3417 30.0639 15.9666C30.6129 16.5875 30.9269 17.8227 30.057 18.4262Z" fill="url(#paint17_linear_5_170)"/>
<defs>
<linearGradient id="paint0_linear_5_170" x1="16.826" y1="0" x2="16.826" y2="11.9012" gradientUnits="userSpaceOnUse">
<stop stop-color="#0D65D9"/>
<stop offset="1" stop-color="#073673"/>
</linearGradient>
<linearGradient id="paint1_linear_5_170" x1="16.8257" y1="14.3114" x2="16.8257" y2="27.0832" gradientUnits="userSpaceOnUse">
<stop stop-color="#0D65D9"/>
<stop offset="1" stop-color="#073673"/>
</linearGradient>
<linearGradient id="paint2_linear_5_170" x1="16.8296" y1="13.0131" x2="16.8296" y2="18.397" gradientUnits="userSpaceOnUse">
<stop stop-color="#0D65D9"/>
<stop offset="1" stop-color="#073673"/>
</linearGradient>
<linearGradient id="paint3_linear_5_170" x1="3.57907" y1="7.57617" x2="3.57907" y2="12.9743" gradientUnits="userSpaceOnUse">
<stop stop-color="#0D65D9"/>
<stop offset="1" stop-color="#073673"/>
</linearGradient>
<linearGradient id="paint4_linear_5_170" x1="28.9478" y1="5.95203" x2="28.9478" y2="11.3577" gradientUnits="userSpaceOnUse">
<stop stop-color="#0D65D9"/>
<stop offset="1" stop-color="#073673"/>
</linearGradient>
<linearGradient id="paint5_linear_5_170" x1="22.8899" y1="0.56958" x2="22.8899" y2="5.93706" gradientUnits="userSpaceOnUse">
<stop stop-color="#0D65D9"/>
<stop offset="1" stop-color="#073673"/>
</linearGradient>
<linearGradient id="paint6_linear_5_170" x1="9.67933" y1="2.1947" x2="9.67933" y2="7.56121" gradientUnits="userSpaceOnUse">
<stop stop-color="#0D65D9"/>
<stop offset="1" stop-color="#073673"/>
</linearGradient>
<linearGradient id="paint7_linear_5_170" x1="12.6463" y1="27.5942" x2="12.6463" y2="31.3322" gradientUnits="userSpaceOnUse">
<stop stop-color="#0D65D9"/>
<stop offset="1" stop-color="#073673"/>
</linearGradient>
<linearGradient id="paint8_linear_5_170" x1="20.9895" y1="27.5972" x2="20.9895" y2="31.3244" gradientUnits="userSpaceOnUse">
<stop stop-color="#0D65D9"/>
<stop offset="1" stop-color="#073673"/>
</linearGradient>
<linearGradient id="paint9_linear_5_170" x1="16.8306" y1="28.1534" x2="16.8306" y2="32" gradientUnits="userSpaceOnUse">
<stop stop-color="#0D65D9"/>
<stop offset="1" stop-color="#073673"/>
</linearGradient>
<linearGradient id="paint10_linear_5_170" x1="25.1985" y1="26.3218" x2="25.1985" y2="29.3786" gradientUnits="userSpaceOnUse">
<stop stop-color="#0D65D9"/>
<stop offset="1" stop-color="#073673"/>
</linearGradient>
<linearGradient id="paint11_linear_5_170" x1="8.44888" y1="26.3219" x2="8.44888" y2="29.3797" gradientUnits="userSpaceOnUse">
<stop stop-color="#0D65D9"/>
<stop offset="1" stop-color="#073673"/>
</linearGradient>
<linearGradient id="paint12_linear_5_170" x1="2.15486" y1="19.5057" x2="2.15486" y2="22.7347" gradientUnits="userSpaceOnUse">
<stop stop-color="#0D65D9"/>
<stop offset="1" stop-color="#073673"/>
</linearGradient>
<linearGradient id="paint13_linear_5_170" x1="31.5201" y1="19.5127" x2="31.5201" y2="22.7437" gradientUnits="userSpaceOnUse">
<stop stop-color="#0D65D9"/>
<stop offset="1" stop-color="#073673"/>
</linearGradient>
<linearGradient id="paint14_linear_5_170" x1="4.78019" y1="23.5266" x2="4.78019" y2="26.6392" gradientUnits="userSpaceOnUse">
<stop stop-color="#0D65D9"/>
<stop offset="1" stop-color="#073673"/>
</linearGradient>
<linearGradient id="paint15_linear_5_170" x1="28.8956" y1="23.5095" x2="28.8956" y2="26.6252" gradientUnits="userSpaceOnUse">
<stop stop-color="#0D65D9"/>
<stop offset="1" stop-color="#073673"/>
</linearGradient>
<linearGradient id="paint16_linear_5_170" x1="4.40885" y1="15.5248" x2="4.40885" y2="18.4311" gradientUnits="userSpaceOnUse">
<stop stop-color="#0D65D9"/>
<stop offset="1" stop-color="#073673"/>
</linearGradient>
<linearGradient id="paint17_linear_5_170" x1="29.2534" y1="15.5253" x2="29.2534" y2="18.4262" gradientUnits="userSpaceOnUse">
<stop stop-color="#0D65D9"/>
<stop offset="1" stop-color="#073673"/>
</linearGradient>
</defs>
</svg>
